<?xml version="1.0" encoding="UTF-8"?>
<svg xmlns="http://www.w3.org/2000/svg" xmlns:xlink="http://www.w3.org/1999/xlink" width="512" height="512" viewBox="0 0 58 58" version="1.1"><!-- Generator: Sketch 50.2 (55047) - http://www.bohemiancoding.com/sketch --><title>052 - Electricity Switch </title><desc>Created with Sketch.</desc><defs/><g id="Page-1" stroke="none" stroke-width="1" fill="none" fill-rule="evenodd"><g id="052---Electricity-Switch-" fill-rule="nonzero"><polygon id="Shape" fill="#BDC3C7" points="41 36 52.57 26.73 50.05 23.61 42 30"/><circle id="Oval" fill="#C03A2B" cx="54" cy="23" r="4"/><path d="M39.1,19 L44,19 L44,43 L39.1,43 C38.4924868,43 38,42.5075132 38,41.9 L38,20.1 C38,19.8082619 38.1158925,19.5284726 38.3221825,19.3221825 C38.5284726,19.1158925 38.8082619,19 39.1,19 Z" id="Shape" fill="#7F8C8D" transform="translate(41.000000, 31.000000) rotate(-180.000000) translate(-41.000000, -31.000000) "/><rect id="Rectangle-path" fill="#F29C1F" transform="translate(19.500000, 29.000000) rotate(-180.000000) translate(-19.500000, -29.000000) " x="3.55271368e-15" y="-3.55271368e-15" width="39" height="58" rx="2"/><path d="M25.613,9 L13.828,9 C13.3475833,8.99969251 12.9348378,9.34105776 12.845,9.813 L9.226,28.813 C9.17029185,29.1056494 9.24796099,29.4078983 9.43785565,29.6374349 C9.62775031,29.8669715 9.9100956,29.9998928 10.208,30 L13.608,30 C13.9292672,30.0002439 14.2308543,30.1548257 14.4186349,30.4155001 C14.6064155,30.6761745 14.6575206,31.0111947 14.556,31.316 L9.623,46.116 C9.47242215,46.5697685 9.6641044,47.0666462 10.0804202,47.3017221 C10.4967361,47.536798 11.0212114,47.4443043 11.332,47.081 L29.6,25.648 C29.8530304,25.3505999 29.9098119,24.9331243 29.7454035,24.5789477 C29.5809951,24.2247711 29.2254734,23.9986863 28.835,24 L23.387,24 C23.0657328,23.9997561 22.7641457,23.8451743 22.5763651,23.5844999 C22.3885845,23.3238255 22.3374794,22.9888053 22.439,22.684 L26.561,10.316 C26.6625206,10.0111947 26.6114155,9.67617446 26.4236349,9.41550009 C26.2358543,9.15482573 25.9342672,9.00024387 25.613,9 Z" id="Shape" fill="#F0C419"/></g></g></svg>
